/* XPM */
static char * unknown[] = {
"10 10 9 1",
". c #acb4be",
"# c #b7bec6",
"a c #b3bbc3",
"b c #b0b8c1",
"c c #a5adb8",
"d c #a9b1bb",
"e c #dfe6ee",
"f c #6c8db1",
"g c #ffffff",
"egggggggge",
"gffffffffg",
"gffffffffg",
"gfgdffcgfg",
"gfbgddgafg",
"gff#ggdffg",
"gfff.bfffg",
"gffffffffg",
"gffffffffg",
"egggggggge"};