/* XPM */
static char * unknown[] = {
"10 10 9 1",
". c #a5adb8",
"# c #b3bbc3",
"a c #b7bec6",
"b c #a9b1bb",
"c c #acb4be",
"d c #b0b8c1",
"e c #dfe6ee",
"f c #6c8db1",
"g c #ffffff",
"egggggggge",
"gffffffffg",
"gffffffffg",
"gfffdcfffg",
"gffbggaffg",
"gf#gbbgdfg",
"gfg.ffbgfg",
"gffffffffg",
"gffffffffg",
"egggggggge"};