/* XPM */
static char * buttmenudown_xpm[] = {
"14 20 21 1",
" 	c None",
".	c #000000",
"+	c #FFFFFF",
"@	c #D7D7D7",
"#	c #D6D6D6",
"$	c #D5D5D5",
"%	c #D4D4D4",
"&	c #D3D3D3",
"*	c #D2D2D2",
"=	c #D0D0D0",
"-	c #CFCFCF",
";	c #CECECE",
">	c #CDCDCD",
",	c #CCCCCC",
"'	c #CBCBCB",
")	c #C9C9C9",
"!	c #C8C8C8",
"~	c #C7C7C7",
"{	c #C6C6C6",
"]	c #C5C5C5",
"^	c #828282",
"..............",
"++++++++++++++",
"@@@@@@@@@@@@@@",
"##############",
"$$$$$$$$$$$$$$",
"%%%%%%%%%%%%%%",
"&&++&&&&&&++&&",
"*++++****++++*",
"=+++++==+++++=",
"--++++++++++--",
";;;++++++++;;;",
">>>>++++++>>>>",
",,,,,++++,,,,,",
"''''''++''''''",
"))))))))))))))",
"!!!!!!!!!!!!!!",
"~~~~~~~~~~~~~~",
"{{{{{{{{{{{{{{",
"]]]]]]]]]]]]]]",
"^^^^^^^^^^^^^^"};
